<?xml version="1.0" encoding="UTF-8"?>
<svg width="493px" height="365px" viewBox="0 0 493 365" version="1.1" xmlns="http://www.w3.org/2000/svg" xmlns:xlink="http://www.w3.org/1999/xlink">
    <title>svg/logo-light-v</title>
    <g id="logo-light-v" stroke="none" stroke-width="1" fill="none" fill-rule="evenodd">
        <g id="Group" fill="#000000" fill-rule="nonzero">
            <path d="M150,1.0658141e-14 L1.0658141e-14,1.0658141e-14 L1.0658141e-14,150 L150,150 L150,1.0658141e-14 Z M128.25,21.75 L128.25,128.25 L21.75,128.25 L21.75,21.75 L128.25,21.75 Z" id="Rectangle"></path>
            <rect id="Rectangle" x="86.25" y="41.25" width="22.5" height="22.5"></rect>
        </g>
        <path d="M14.0953932,365 L36.2175057,365 L36.2175057,313.512636 C40.1326916,318.211402 45.0920478,321.865998 51.0955742,324.475518 C57.0991006,326.955649 63.624712,328.195262 70.6724086,328.195262 C80.8517111,328.195262 89.9226006,325.781184 97.8841724,320.952122 C105.844839,315.992766 112.109861,309.33686 116.677427,300.983498 C121.376193,292.631041 123.725123,283.234414 123.725123,272.793616 C123.725123,262.352819 121.376193,252.955287 116.677427,244.60283 C112.109861,236.250373 105.779692,229.659614 97.6878249,224.830553 C89.727158,220.001492 80.721416,217.587414 70.6724086,217.587414 C63.1026269,217.587414 56.2503729,218.957322 50.1165515,221.698042 C44.1130251,224.438763 39.153669,228.288801 35.238483,233.248157 L35.238483,219.936344 L0,219.936344 L0,239.513179 L14.0953932,239.513179 L14.0953932,365 Z M68.5189207,307.640309 C62.3850992,307.640309 56.8376056,306.139202 51.8782494,303.136986 C47.0491883,300.135675 43.19915,296.024142 40.3281342,290.804195 C37.5874136,285.453049 36.2175057,279.449523 36.2175057,272.793616 C36.2175057,266.13771 37.5874136,260.199331 40.3281342,254.97848 C43.19915,249.758533 47.0491883,245.647 51.8782494,242.644785 C56.8376056,239.643474 62.3850992,238.142366 68.5189207,238.142366 C74.6527421,238.142366 80.1341834,239.643474 84.9632445,242.644785 C89.7923055,245.647 93.5771964,249.758533 96.317917,254.97848 C99.1889327,260.199331 100.624893,266.13771 100.624893,272.793616 C100.624893,279.449523 99.2540803,285.453049 96.5133596,290.804195 C93.772639,296.024142 89.9877482,300.135675 85.1586871,303.136986 C80.329626,306.139202 74.7830372,307.640309 68.5189207,307.640309 Z M145.25186,325.846331 L167.373972,325.846331 L167.373972,239.904064 L202.024318,239.904064 L202.024318,219.936344 L145.25186,219.936344 L145.25186,325.846331 Z M226.923344,205.449161 L249.045457,205.449161 L249.045457,180 L226.923344,180 L226.923344,205.449161 Z M226.923344,325.846331 L249.045457,325.846331 L249.045457,219.936344 L210.87081,219.936344 L210.87081,239.904064 L226.923344,239.904064 L226.923344,325.846331 Z M325.183924,328.195262 C332.492211,328.195262 339.278413,326.890501 345.543434,324.280076 C351.807551,321.66965 357.223844,318.146254 361.792315,313.708983 C366.490177,309.140512 369.883277,304.050861 371.971618,298.439125 L352.591131,289.23794 C350.241295,294.849676 346.652752,299.352095 341.823691,302.746101 C337.124925,306.008906 331.578336,307.640309 325.183924,307.640309 C319.180398,307.640309 313.764104,306.139202 308.935043,303.136986 C304.236277,300.135675 300.516534,296.024142 297.775813,290.804195 C295.035093,285.453049 293.665185,279.449523 293.665185,272.793616 C293.665185,266.00651 295.035093,260.068131 297.775813,254.97848 C300.516534,249.758533 304.236277,245.647 308.935043,242.644785 C313.764104,239.643474 319.180398,238.142366 325.183924,238.142366 C331.578336,238.142366 337.190977,239.838916 342.019133,243.232922 C346.848195,246.495728 350.372495,250.867851 352.591131,256.349293 L371.971618,247.343551 C369.752982,241.470319 366.294734,236.31552 361.595968,231.878249 C357.028402,227.309778 351.612108,223.786383 345.347087,221.306252 C339.08297,218.827026 332.361916,217.587414 325.183924,217.587414 C314.611927,217.587414 305.2153,220.001492 296.993138,224.830553 C288.770976,229.528414 282.310512,236.054026 277.611746,244.407387 C272.913885,252.629549 270.56405,262.026176 270.56405,272.597269 C270.56405,283.169266 272.913885,292.631041 277.611746,300.983498 C282.310512,309.33686 288.770976,315.992766 296.993138,320.952122 C305.2153,325.781184 314.611927,328.195262 325.183924,328.195262 Z M445.276168,328.195262 L483.253562,328.195262 L483.253562,308.618427 L445.276168,308.618427 C436.009836,308.618427 428.374906,306.008906 422.37138,300.788055 C416.367854,295.436909 413.0399,288.258917 412.38752,279.25408 L491.089363,279.25408 C491.478438,277.687825 491.740838,275.991275 491.867514,274.163524 C492.003238,272.336679 492.066576,270.574981 492.066576,268.87843 C492.066576,259.742393 490.039763,251.323884 485.995187,243.623807 C482.077287,235.793435 476.340684,229.528414 468.768188,224.830553 C461.328702,220.001492 452.258717,217.587414 441.556425,217.587414 C431.637712,217.587414 422.697118,220.001492 414.736451,224.830553 C406.906079,229.528414 400.706205,236.054026 396.138639,244.407387 C391.570168,252.629549 389.286385,262.026176 389.286385,272.597269 C389.286385,283.038971 391.570168,292.500746 396.138639,300.983498 C400.8365,309.33686 407.362112,315.992766 415.715474,320.952122 C424.198226,325.781184 434.05179,328.195262 445.276168,328.195262 Z M441.556425,236.185225 C448.995911,236.185225 455.260028,238.534156 460.349679,243.232922 C465.440235,247.930783 468.180956,254.064605 468.572746,261.634386 L412.778405,261.634386 C414.084071,253.54252 417.412024,247.278403 422.76317,242.841132 C428.113411,238.403861 434.378433,236.185225 441.556425,236.185225 Z" id="Shape" fill="#000000" fill-rule="nonzero"></path>
    </g>
</svg>